<svg width="24" height="24" viewBox="0 0 24 24" fill="none" xmlns="http://www.w3.org/2000/svg">
<g opacity="0.2">
<rect width="24" height="24" rx="4" fill="#BC31FD"/>
</g>
<g clip-path="url(#clip0_8_311)">
<path d="M11.6057 12.4186V7.21537C11.6066 7.17545 11.5996 7.13574 11.5851 7.09855C11.5705 7.06136 11.5488 7.02742 11.521 6.99871C11.4933 6.96999 11.4601 6.94707 11.4234 6.93127C11.3868 6.91546 11.3473 6.9071 11.3074 6.90665C7.09276 7.08703 4.1165 11.9226 7.40495 16.4113L7.59227 16.5986C12.0497 19.887 16.8992 16.9212 17.1142 12.7308C17.1143 12.6498 17.0828 12.5719 17.0265 12.5137C16.9702 12.4554 16.8934 12.4213 16.8124 12.4186H11.6092H11.6057Z" fill="#BC31FD"/>
<path d="M12.5075 6.63264V11.5168H17.3639C17.4434 11.5172 17.5223 11.5019 17.5959 11.4718C17.6695 11.4417 17.7365 11.3973 17.7929 11.3412C17.8493 11.2851 17.8941 11.2184 17.9246 11.145C17.9552 11.0715 17.9709 10.9927 17.9709 10.9132C17.9709 10.8889 17.9709 10.8611 17.9709 10.8369C17.8165 9.62004 17.2634 8.48863 16.398 7.61943C15.5325 6.75023 14.4035 6.1922 13.1874 6.03253C13.1081 6.02284 13.0277 6.02889 12.9508 6.05034C12.8738 6.07178 12.8019 6.1082 12.739 6.15751C12.6762 6.20681 12.6237 6.26803 12.5846 6.33766C12.5454 6.40728 12.5204 6.48395 12.511 6.56326C12.5081 6.58627 12.5069 6.60946 12.5075 6.63264Z" fill="#BC31FD"/>
</g>
<defs>
<clipPath id="clip0_8_311">
<rect width="12" height="12.0325" fill="white" transform="translate(6 6)"/>
</clipPath>
</defs>
</svg>
