<svg width="24" height="24" viewBox="0 0 24 24" fill="none" xmlns="http://www.w3.org/2000/svg">
<g opacity="0.2">
<rect width="24" height="24" rx="4" fill="#FD9331"/>
</g>
<path d="M12 7.33331C9.00699 7.33331 6.40017 9.21316 5 12C6.40017 14.7874 9.00699 16.6668 12 16.6668C14.993 16.6668 17.5998 14.7874 19 12C17.5998 9.21316 14.993 7.33331 12 7.33331ZM12 14.9168C10.3889 14.9168 9.08328 13.6111 9.08328 12C9.08328 10.389 10.3889 9.08331 12 9.08331C13.6111 9.08331 14.9167 10.389 14.9167 12C14.9167 13.6111 13.6111 14.9168 12 14.9168Z" fill="#FD9331"/>
<path d="M11.9999 13.75C12.9664 13.75 13.7499 12.9665 13.7499 12C13.7499 11.0335 12.9664 10.25 11.9999 10.25C11.0334 10.25 10.2499 11.0335 10.2499 12C10.2499 12.9665 11.0334 13.75 11.9999 13.75Z" fill="#FD9331"/>
</svg>
