<svg width="24" height="24" viewBox="0 0 24 24" fill="none" xmlns="http://www.w3.org/2000/svg">
<g opacity="0.23">
<rect width="24" height="24" rx="4" fill="#FD3162"/>
</g>
<path d="M14.7433 12.1882C14.0271 12.8653 13.0541 13.2716 12.0001 13.2716C10.946 13.2716 9.97303 12.8653 9.25682 12.1882C7.93249 13.258 7.06763 14.9236 7.06763 16.2101C7.06763 18.2549 7.81087 18.932 12.0001 18.932C16.1892 18.932 16.9325 18.2549 16.9325 16.2101C16.9325 14.9236 16.0676 13.258 14.7433 12.1882Z" fill="#FD3162"/>
<path d="M12 12.378C13.7389 12.378 15.1486 10.9654 15.1486 9.22284C15.1486 7.48026 13.7389 6.06763 12 6.06763C10.261 6.06763 8.85132 7.48026 8.85132 9.22284C8.85132 10.9654 10.261 12.378 12 12.378Z" fill="#FD3162"/>
</svg>
