<svg width="24" height="24" viewBox="0 0 24 24" fill="none" xmlns="http://www.w3.org/2000/svg">
<path d="M13.818 7.45483H10.6362C10.3853 7.45483 10.1816 7.65847 10.1816 7.90938V13.8185H7.90889C7.65798 13.8185 7.45435 14.0221 7.45435 14.273C7.45435 14.5239 7.65798 14.7276 7.90889 14.7276H10.1816V16.0912C10.1816 16.3421 10.3853 16.5457 10.6362 16.5457C10.8871 16.5457 11.0907 16.3421 11.0907 16.0912V14.7276H13.3634C13.6143 14.7276 13.818 14.5239 13.818 14.273C13.818 14.0221 13.6143 13.8185 13.3634 13.8185H11.0907V12.9094H13.818C15.3216 12.9094 16.5453 11.6857 16.5453 10.1821C16.5453 8.67847 15.3216 7.45483 13.818 7.45483ZM13.818 12.0003H11.0907V8.36392H13.818C14.8207 8.36392 15.6362 9.17938 15.6362 10.1821C15.6362 11.1848 14.8207 12.0003 13.818 12.0003Z" fill="white" stroke="white" stroke-width="0.5"/>
<path d="M12 2C6.48636 2 2 6.48636 2 12C2 17.5136 6.48636 22 12 22C17.5136 22 22 17.5136 22 12C22 6.48636 17.5136 2 12 2ZM12 21.0909C6.98727 21.0909 2.90909 17.0127 2.90909 12C2.90909 6.98727 6.98727 2.90909 12 2.90909C17.0127 2.90909 21.0909 6.98727 21.0909 12C21.0909 17.0127 17.0127 21.0909 12 21.0909Z" fill="white" stroke="white"/>
</svg>
