<svg width="16" height="16" viewBox="0 0 16 16" fill="none" xmlns="http://www.w3.org/2000/svg">
<path d="M13.7776 1.10381C12.9712 0.298729 11.6652 0.298729 10.8588 1.10381L10.1282 1.83851L2.35072 9.61259L2.33419 9.62925C2.33019 9.63325 2.33019 9.63751 2.32593 9.63751C2.31766 9.64991 2.30527 9.66218 2.29713 9.67457C2.29713 9.67871 2.29287 9.67871 2.29287 9.68284C2.28461 9.69524 2.2806 9.7035 2.27221 9.7159C2.26821 9.72003 2.26821 9.72404 2.26407 9.7283C2.25994 9.7407 2.25581 9.74896 2.25155 9.76136C2.25155 9.76536 2.24755 9.76536 2.24755 9.76962L0.52196 14.9591C0.47134 15.1069 0.509821 15.2705 0.621004 15.3802C0.699128 15.4573 0.8045 15.5004 0.914133 15.5C0.958941 15.4992 1.00336 15.4922 1.04623 15.4793L6.23126 13.7495C6.23526 13.7495 6.23526 13.7495 6.23952 13.7454C6.25256 13.7416 6.26509 13.736 6.27658 13.7288C6.27981 13.7284 6.28265 13.727 6.28497 13.7248C6.29724 13.7165 6.31377 13.7081 6.32617 13.6999C6.33844 13.6917 6.35096 13.6793 6.36336 13.6711C6.36749 13.6668 6.37149 13.6668 6.37149 13.6628C6.37575 13.6587 6.38402 13.6547 6.38815 13.6463L14.8962 5.13736C15.7013 4.33086 15.7013 3.02483 14.8962 2.21845L13.7776 1.10381ZM6.09915 12.7792L3.22598 9.90587L10.4172 2.71398L13.2904 5.5873L6.09915 12.7792ZM2.82128 10.6696L5.33134 13.1798L1.56224 14.4348L2.82128 10.6696ZM14.3142 4.55932L13.8766 5.00112L11.0033 2.12754L11.4452 1.68586C11.9285 1.20287 12.712 1.20287 13.1955 1.68586L14.3183 2.80877C14.798 3.29435 14.7962 4.07606 14.3142 4.55932Z" fill="#68A4FF" stroke="#68A4FF" stroke-width="0.416667"/>
</svg>
