<svg width="4" height="23" viewBox="0 0 4 23" fill="none" xmlns="http://www.w3.org/2000/svg">
<path fill-rule="evenodd" clip-rule="evenodd" d="M4 11.5C4 10.3954 3.10457 9.5 2 9.5C0.89543 9.5 0 10.3954 0 11.5C0 12.6046 0.89543 13.5 2 13.5C3.10457 13.5 4 12.6046 4 11.5Z" fill="#578FFC"/>
<path fill-rule="evenodd" clip-rule="evenodd" d="M4 20.5C4 19.3954 3.10457 18.5 2 18.5C0.89543 18.5 0 19.3954 0 20.5C0 21.6046 0.89543 22.5 2 22.5C3.10457 22.5 4 21.6046 4 20.5Z" fill="#578FFC"/>
<path fill-rule="evenodd" clip-rule="evenodd" d="M4 2.5C4 1.39543 3.10457 0.5 2 0.5C0.89543 0.5 0 1.39543 0 2.5C0 3.60457 0.89543 4.5 2 4.5C3.10457 4.5 4 3.60457 4 2.5Z" fill="#578FFC"/>
</svg>
