<svg width="24" height="24" viewBox="0 0 24 24" fill="none" xmlns="http://www.w3.org/2000/svg">
<path d="M17.8496 8.08687H6.1502C6.02362 8.07611 5.8982 8.11793 5.80336 8.20246C5.71012 8.29204 5.66692 8.4217 5.68777 8.54929L6.89006 19.0233C7.03106 20.178 8.01575 21.0434 9.17906 21.0348H15.0056C16.2017 21.0519 17.2092 20.1451 17.3178 18.9539L18.312 8.50305C18.3181 8.39095 18.2761 8.28155 18.1964 8.20246C18.1016 8.11793 17.9762 8.07611 17.8496 8.08687ZM16.393 18.9077C16.3203 19.6117 15.7129 20.1381 15.0057 20.11H9.1791C8.48455 20.1381 7.88754 19.6221 7.81492 18.9308L6.65887 9.01172H17.3409L16.393 18.9077Z" fill="#68A4FF" stroke="#68A4FF" stroke-width="0.5"/>
<path d="M19.5376 5.08118H14.7745V4.34126C14.8002 3.62662 14.2417 3.02651 13.5271 3.00085C13.5036 3 13.4801 2.99978 13.4567 3.00023H10.5433C9.82835 2.98699 9.23807 3.55586 9.22483 4.27085C9.22439 4.29431 9.22461 4.31781 9.22545 4.34126V5.08113H4.46243C4.20703 5.08113 4 5.28816 4 5.54356C4 5.79896 4.20703 6.00599 4.46243 6.00599H19.5376C19.793 6.00599 20 5.79896 20 5.54356C20 5.28816 19.7929 5.08118 19.5376 5.08118ZM13.8497 4.34126V5.08113H10.1503V4.34126C10.1242 4.13862 10.2674 3.95323 10.47 3.92716C10.4943 3.92402 10.5189 3.92336 10.5433 3.92508H13.4566C13.6604 3.91066 13.8373 4.06413 13.8518 4.26798C13.8535 4.29241 13.8528 4.31697 13.8497 4.34126Z" fill="#68A4FF" stroke="#68A4FF" stroke-width="0.5"/>
</svg>
