<svg width="24" height="24" viewBox="0 0 24 24" fill="none" xmlns="http://www.w3.org/2000/svg">
<path d="M7.66962 11.3384H4.33361C4.14946 11.3384 4 11.4878 4 11.672V19.6784C4 19.8625 4.14946 20.012 4.33361 20.012H7.66962C7.85442 20.012 8.00323 19.8625 8.00323 19.6784V11.672C8.0032 11.4878 7.85377 11.3384 7.66962 11.3384ZM7.33601 19.3448H4.66722V12.0056H7.33601V19.3448Z" fill="#68A4FF" stroke="#68A4FF" stroke-width="0.6"/>
<path d="M13.6618 4H10.3258C10.1417 4 9.99219 4.14946 9.99219 4.33361V19.6792C9.99219 19.8634 10.1417 20.0128 10.3258 20.0128H13.6618C13.846 20.0128 13.9954 19.8634 13.9954 19.6792V4.33361C13.9954 4.14946 13.846 4 13.6618 4ZM13.3282 19.3456H10.6594V4.66719H13.3282V19.3456Z" fill="#68A4FF" stroke="#68A4FF" stroke-width="0.6"/>
<path d="M19.6667 7.33521H16.3307C16.1465 7.33521 15.9971 7.48467 15.9971 7.66882V19.6784C15.9971 19.8626 16.1465 20.012 16.3307 20.012H19.6667C19.8508 20.012 20.0003 19.8626 20.0003 19.6784V7.66882C20.0003 7.48464 19.8508 7.33521 19.6667 7.33521ZM19.3331 19.3448H16.6643V8.00239H19.3331V19.3448Z" fill="#68A4FF" stroke="#68A4FF" stroke-width="0.6"/>
</svg>
