<svg width="60" height="60" viewBox="0 0 60 60" fill="none" xmlns="http://www.w3.org/2000/svg">
<path d="M30.0002 0C13.7372 0 0.000228882 13.737 0.000228882 30C0.000228882 46.263 13.7372 60 30.0002 60C46.2632 60 60.0002 46.263 60.0002 30C60.0002 13.737 46.2632 0 30.0002 0ZM30.0002 15C35.1812 15 39.0002 18.816 39.0002 24C39.0002 29.184 35.1812 33 30.0002 33C24.8222 33 21.0002 29.184 21.0002 24C21.0002 18.816 24.8222 15 30.0002 15ZM14.6822 44.316C17.3732 40.356 21.8612 37.716 27.0002 37.716H33.0002C38.1422 37.716 42.6272 40.356 45.3182 44.316C41.4842 48.42 36.0452 51 30.0002 51C23.9552 51 18.5162 48.42 14.6822 44.316Z" fill="#29324F"/>
</svg>
